<svg width="24" height="24" viewBox="0 0 24 24" fill="none" xmlns="http://www.w3.org/2000/svg">
<path d="M19.6699 4.86883C19.6638 4.85695 19.6536 4.84764 19.6413 4.84258C18.2116 4.18665 16.7029 3.71892 15.153 3.4511C15.1389 3.44848 15.1244 3.45037 15.1114 3.4565C15.0985 3.46262 15.0878 3.47267 15.0809 3.48523C14.8755 3.85808 14.6889 4.24107 14.5221 4.63273C12.8514 4.37911 11.1519 4.37911 9.48117 4.63273C9.31324 4.24007 9.12379 3.857 8.91364 3.48523C8.90637 3.47295 8.89564 3.46313 8.88282 3.45704C8.86992 3.45095 8.85552 3.44888 8.84149 3.4511C7.29135 3.71836 5.7826 4.18612 4.35316 4.84262C4.34092 4.8478 4.3306 4.85666 4.32361 4.86797C1.46502 9.13692 0.681947 13.3008 1.06609 17.4132C1.06717 17.4233 1.07027 17.4331 1.0752 17.442C1.08013 17.4508 1.08679 17.4585 1.09478 17.4648C2.75932 18.6972 4.62111 19.638 6.60072 20.2469C6.61466 20.2511 6.62955 20.2509 6.64338 20.2464C6.65721 20.2418 6.66932 20.2332 6.67808 20.2215C7.10326 19.643 7.48 19.0304 7.80447 18.39C7.80889 18.3812 7.81144 18.3715 7.81197 18.3617C7.81242 18.3519 7.81077 18.342 7.80717 18.3329C7.80357 18.3237 7.79802 18.3154 7.79097 18.3085C7.78392 18.3016 7.77552 18.2963 7.76629 18.2929C7.17217 18.0656 6.59702 17.7916 6.04621 17.4735C6.0362 17.4675 6.0278 17.4593 6.02174 17.4494C6.01568 17.4395 6.01216 17.4282 6.01147 17.4167C6.01078 17.4051 6.01296 17.3935 6.01781 17.3829C6.02266 17.3724 6.03003 17.3632 6.03927 17.3562C6.15484 17.2696 6.27049 17.1795 6.38086 17.0886C6.39067 17.0805 6.40253 17.0753 6.41512 17.0736C6.42771 17.0719 6.44052 17.0738 6.45211 17.079C10.0607 18.7259 13.9675 18.7259 17.5334 17.079C17.5449 17.0734 17.5579 17.0713 17.5707 17.0729C17.5835 17.0744 17.5956 17.0796 17.6055 17.0877C17.7159 17.1787 17.8315 17.2696 17.948 17.3562C17.9572 17.3631 17.9647 17.3723 17.9696 17.3828C17.9745 17.3933 17.9768 17.4048 17.9762 17.4165C17.9756 17.428 17.9721 17.4393 17.9661 17.4492C17.9602 17.4591 17.9518 17.4675 17.9419 17.4735C17.3923 17.7942 16.8166 18.0681 16.221 18.2921C16.2117 18.2955 16.2033 18.301 16.1964 18.308C16.1893 18.315 16.1839 18.3234 16.1803 18.3326C16.1768 18.3419 16.1753 18.3517 16.1758 18.3616C16.1763 18.3715 16.179 18.3812 16.1835 18.39C16.5134 19.0269 16.8896 19.6387 17.3091 20.2206C17.3175 20.2325 17.3296 20.2414 17.3435 20.2461C17.3574 20.2509 17.3724 20.2511 17.3864 20.2468C19.3695 19.64 21.2346 18.6991 22.9012 17.4648C22.9093 17.4589 22.9161 17.4513 22.921 17.4426C22.926 17.4338 22.929 17.4241 22.9299 17.4141C23.3898 12.6597 22.16 8.52995 19.6699 4.86883ZM8.34342 14.9092C7.25693 14.9092 6.36173 13.9122 6.36173 12.6878C6.36173 11.4633 7.23957 10.4662 8.34342 10.4662C9.45582 10.4662 10.3424 11.472 10.325 12.6877C10.325 13.9122 9.44712 14.9092 8.34342 14.9092ZM15.6702 14.9092C14.5837 14.9092 13.6885 13.9122 13.6885 12.6878C13.6885 11.4633 14.5664 10.4662 15.6702 10.4662C16.7826 10.4662 17.6691 11.472 17.6518 12.6877C17.6518 13.9122 16.7826 14.9092 15.6702 14.9092Z" fill="#4C5DEB"/>
</svg>
