<svg width="64" height="64" viewBox="0 0 64 64" fill="none" xmlns="http://www.w3.org/2000/svg">
<path d="M40.3227 54.304L45.9813 48.648M45.9813 48.648L51.6373 42.9893M45.9813 48.648L40.32 42.9867M45.9787 48.6453L51.6347 54.3013M56 34.6667V21.3333C56 19.9188 55.4381 18.5623 54.4379 17.5621C53.4377 16.5619 52.0812 16 50.6667 16H13.3333C11.9188 16 10.5623 16.5619 9.5621 17.5621C8.5619 18.5623 8 19.9188 8 21.3333V37.3333C8 38.7478 8.5619 40.1044 9.5621 41.1046C10.5623 42.1048 11.9188 42.6667 13.3333 42.6667H29.3333M32 29.36L32.0267 29.3307M42.6667 29.36L42.6933 29.3307M21.3333 29.36L21.36 29.3307" stroke="black" stroke-width="1.5" stroke-linecap="round" stroke-linejoin="round"/>
</svg>
