<svg width="24" height="24" viewBox="0 0 24 24" fill="none" xmlns="http://www.w3.org/2000/svg">
<path d="M8.52398 18.6641C8.52398 18.7488 8.42663 18.8165 8.30385 18.8165C8.16412 18.8293 8.0667 18.7615 8.0667 18.6641C8.0667 18.5795 8.16412 18.5117 8.2869 18.5117C8.41388 18.499 8.52398 18.5668 8.52398 18.6641ZM7.20726 18.4736C7.17762 18.5583 7.26229 18.6557 7.38931 18.6811C7.49939 18.7234 7.62638 18.6811 7.6518 18.5964C7.67723 18.5117 7.59675 18.4143 7.46976 18.3762C7.35967 18.3466 7.23689 18.389 7.20726 18.4736ZM9.0786 18.4016C8.95583 18.4313 8.87115 18.5117 8.8839 18.6091C8.89657 18.6938 9.00667 18.7488 9.13365 18.7192C9.25642 18.6896 9.3411 18.6091 9.32842 18.5244C9.31575 18.4439 9.20138 18.389 9.0786 18.4016ZM11.8645 2.17743C5.99214 2.17743 1.5 6.63569 1.5 12.5081C1.5 17.2034 4.45524 21.2214 8.67637 22.6355C9.21832 22.7329 9.4089 22.3984 9.4089 22.1232C9.4089 21.8607 9.39615 20.4127 9.39615 19.5236C9.39615 19.5236 6.43246 20.1587 5.81008 18.2619C5.81008 18.2619 5.32742 17.0299 4.63307 16.7123C4.63307 16.7123 3.66351 16.0476 4.7008 16.0603C4.7008 16.0603 5.75504 16.145 6.33508 17.1527C7.26229 18.7869 8.8161 18.317 9.42158 18.0375C9.51893 17.3601 9.79418 16.8902 10.099 16.6107C7.73227 16.3482 5.34436 16.0052 5.34436 11.9323C5.34436 10.768 5.66613 10.1837 6.34354 9.43853C6.23347 9.16328 5.87359 8.02861 6.45363 6.56372C7.33851 6.28852 9.375 7.70686 9.375 7.70686C10.2218 7.46977 11.132 7.34698 12.0339 7.34698C12.9357 7.34698 13.846 7.46977 14.6927 7.70686C14.6927 7.70686 16.7292 6.28429 17.6141 6.56372C18.1942 8.03288 17.8342 9.16328 17.7242 9.43853C18.4016 10.1879 18.8165 10.7722 18.8165 11.9323C18.8165 16.018 16.3228 16.3439 13.9561 16.6107C14.3456 16.9452 14.6758 17.5802 14.6758 18.5752C14.6758 20.0021 14.6631 21.7676 14.6631 22.1147C14.6631 22.3899 14.8579 22.7244 15.3955 22.6271C19.6294 21.2214 22.5 17.2034 22.5 12.5081C22.5 6.63569 17.7369 2.17743 11.8645 2.17743ZM5.61532 16.7801C5.56028 16.8224 5.57299 16.9198 5.64496 17.0002C5.71271 17.068 5.81008 17.0976 5.86512 17.0426C5.92016 17.0002 5.90746 16.9028 5.83549 16.8224C5.76774 16.7546 5.67036 16.725 5.61532 16.7801ZM5.15806 16.4371C5.12842 16.4921 5.17076 16.5599 5.25545 16.6022C5.32318 16.6445 5.40786 16.6319 5.4375 16.5726C5.46714 16.5176 5.4248 16.4498 5.34012 16.4075C5.25545 16.382 5.18771 16.3948 5.15806 16.4371ZM6.52984 17.9444C6.4621 17.9994 6.4875 18.1265 6.58488 18.2069C6.68226 18.3043 6.80504 18.317 6.86008 18.2492C6.91512 18.1942 6.88972 18.0671 6.80504 17.9867C6.71189 17.8893 6.58488 17.8766 6.52984 17.9444ZM6.04717 17.322C5.97943 17.3643 5.97943 17.4744 6.04717 17.5718C6.11492 17.6692 6.22923 17.7115 6.28427 17.6692C6.35201 17.6141 6.35201 17.504 6.28427 17.4067C6.225 17.3093 6.11492 17.267 6.04717 17.322Z" fill="black"/>
</svg>
