<svg width="24" height="24" viewBox="0 0 24 24" fill="none" xmlns="http://www.w3.org/2000/svg">
<path d="M20.7872 3L13.1658 8.63775L14.5868 5.31424L20.7872 3Z" fill="#E17726" stroke="#E17726" stroke-width="0.25" stroke-linecap="round" stroke-linejoin="round"/>
<path d="M3.21284 3L10.7646 8.6841L9.41319 5.32005L3.21284 3ZM18.0437 16.0677L16.0137 19.1649L20.358 20.3597L21.5992 16.1373L18.0437 16.0677ZM2.40662 16.1373L3.64205 20.3597L7.97477 19.1649L5.95629 16.0677L2.40662 16.1373Z" fill="#E27625" stroke="#E27625" stroke-width="0.25" stroke-linecap="round" stroke-linejoin="round"/>
<path d="M7.74266 10.8359L6.53625 12.6571L10.8283 12.8544L10.6891 8.23168L7.74266 10.8418V10.8359ZM16.2573 10.8418L13.2644 8.17371L13.1658 12.8544L17.4579 12.6571L16.2573 10.8418ZM7.97471 19.1649L10.5789 17.9121L8.34011 16.172L7.97471 19.1649ZM13.4268 17.9063L16.0137 19.1649L15.6657 16.1662L13.4268 17.9063Z" fill="#E27625" stroke="#E27625" stroke-width="0.25" stroke-linecap="round" stroke-linejoin="round"/>
<path d="M16.0137 19.1649L13.4268 17.9121L13.6357 19.5941L13.6124 20.3075L16.0137 19.1649ZM7.97473 19.1649L10.3876 20.3075L10.3702 19.5941L10.579 17.9121L7.97473 19.1649Z" fill="#D5BFB2" stroke="#D5BFB2" stroke-width="0.25" stroke-linecap="round" stroke-linejoin="round"/>
<path d="M10.4282 15.0527L8.2821 14.4263L9.80175 13.7303L10.4339 15.0527H10.4282ZM13.566 15.0527L14.204 13.7244L15.7295 14.4204L13.566 15.0585V15.0527Z" fill="#233447" stroke="#233447" stroke-width="0.25" stroke-linecap="round" stroke-linejoin="round"/>
<path d="M7.97477 19.1649L8.35172 16.0676L5.9563 16.1372L7.97477 19.1649ZM15.6483 16.0676L16.0137 19.1649L18.0437 16.1372L15.6483 16.0676ZM17.4638 12.6572L13.1717 12.8544L13.5661 15.0584L14.204 13.7244L15.7295 14.4204L17.4638 12.6572ZM8.28212 14.4263L9.80177 13.7302L10.434 15.0527L10.8342 12.8486L6.54211 12.6572L8.28212 14.4263Z" fill="#CC6228" stroke="#CC6228" stroke-width="0.25" stroke-linecap="round" stroke-linejoin="round"/>
<path d="M6.54211 12.6572L8.34018 16.1663L8.28213 14.4263L6.54211 12.6572ZM15.7295 14.4263L15.6599 16.1663L17.4579 12.6572L15.7295 14.4263ZM10.8342 12.8544L10.4282 15.0584L10.9386 17.6569L11.0546 14.229L10.8342 12.8544ZM13.1658 12.8544L12.957 14.2232L13.0614 17.6569L13.566 15.0527L13.1658 12.8486V12.8544Z" fill="#E27525" stroke="#E27525" stroke-width="0.25" stroke-linecap="round" stroke-linejoin="round"/>
<path d="M13.566 15.0527L13.0614 17.6569L13.4268 17.9121L15.6599 16.1721L15.7295 14.4263L13.566 15.0527ZM8.28214 14.4263L8.34019 16.1663L10.579 17.9063L10.9386 17.6569L10.434 15.0527L8.27637 14.4263H8.28214Z" fill="#F5841F" stroke="#F5841F" stroke-width="0.25" stroke-linecap="round" stroke-linejoin="round"/>
<path d="M13.6183 20.3075L13.6357 19.5941L13.4384 19.4317H10.5616L10.3702 19.5941L10.3876 20.3075L7.97473 19.1649L8.82156 19.861L10.5325 21.0384H13.4616L15.1785 19.8551L16.0137 19.1649L13.6124 20.3075H13.6183Z" fill="#C0AC9D" stroke="#C0AC9D" stroke-width="0.25" stroke-linecap="round" stroke-linejoin="round"/>
<path d="M13.4268 17.9063L13.0613 17.6569H10.9385L10.5789 17.9121L10.3701 19.5941L10.5615 19.4317H13.4384L13.6356 19.5941L13.4268 17.9121V17.9063Z" fill="#161616" stroke="#161616" stroke-width="0.25" stroke-linecap="round" stroke-linejoin="round"/>
<path d="M21.112 9.00315L21.75 5.90006L20.7871 3L13.421 8.45212L16.2573 10.8359L20.2594 12.0018L21.141 10.9752L20.7582 10.6967L21.3672 10.1399L20.9032 9.78037L21.5122 9.31635L21.1062 9.00315H21.112ZM2.25 5.89426L2.89961 9.00315L2.48201 9.3105L3.10261 9.77452L2.63861 10.1399L3.24182 10.6967L2.85902 10.9752L3.74063 12.0018L7.7427 10.8418L10.579 8.44627L3.21282 3L2.25 5.89426Z" fill="#763E1A" stroke="#763E1A" stroke-width="0.25" stroke-linecap="round" stroke-linejoin="round"/>
<path d="M20.2594 12.0018L16.2573 10.8418L17.4637 12.6573L15.6657 16.1663L18.0437 16.1373H21.5992L20.2594 12.0018ZM7.74272 10.8359L3.74064 12.0018L2.40662 16.1373H5.96209L8.34017 16.1663L6.5421 12.6573L7.74849 10.8359H7.74272ZM13.1658 12.8544L13.4268 8.4463L14.5868 5.31427H9.41319L10.5732 8.4463L10.8342 12.8544L10.9328 14.2349V17.6569H13.0614L13.073 14.2349L13.1658 12.8544Z" fill="#F5841F" stroke="#F5841F" stroke-width="0.25" stroke-linecap="round" stroke-linejoin="round"/>
</svg>
