<svg width="24" height="24" viewBox="0 0 24 24" fill="none" xmlns="http://www.w3.org/2000/svg">
<path d="M19.9442 8.73859C19.9569 8.91626 19.9569 9.09393 19.9569 9.2716C19.9569 14.6904 15.8326 20.9341 8.29444 20.9341C5.97208 20.9341 3.81473 20.2615 2 19.094C2.32996 19.1321 2.64719 19.1447 2.98985 19.1447C4.90607 19.1447 6.67006 18.4976 8.07869 17.3935C6.27666 17.3554 4.76649 16.1752 4.24618 14.5508C4.50001 14.5889 4.7538 14.6142 5.02032 14.6142C5.38833 14.6142 5.75638 14.5635 6.099 14.4747C4.22083 14.094 2.81215 12.4442 2.81215 10.4518V10.401C3.35781 10.7056 3.99239 10.8959 4.66494 10.9214C3.56086 10.1853 2.83755 8.92893 2.83755 7.50761C2.83755 6.74619 3.04055 6.04822 3.39591 5.43908C5.41369 7.92642 8.44669 9.55076 11.8477 9.72843C11.7843 9.42385 11.7462 9.1066 11.7462 8.78934C11.7462 6.53045 13.5736 4.69037 15.8451 4.69037C17.0254 4.69037 18.0913 5.18529 18.8401 5.98478C19.7665 5.80712 20.6548 5.46447 21.4417 4.99494C21.137 5.94674 20.4898 6.74624 19.6396 7.25381C20.4645 7.16502 21.264 6.93654 22 6.61932C21.4417 7.43147 20.7437 8.15476 19.9442 8.73859V8.73859Z" fill="#5D97E3"/>
</svg>
